<svg width="24" height="24" viewBox="0 0 24 24" fill="none" xmlns="http://www.w3.org/2000/svg">
<path d="M7.42672 18.9081C8.25586 18.9084 8.93549 19.6019 8.93551 20.4589C8.93551 21.3058 8.25587 21.9997 7.42672 21.9999C6.58738 21.9999 5.90719 21.3059 5.90719 20.4589C5.90722 19.6017 6.58739 18.9081 7.42672 18.9081ZM18.6679 18.9081C19.4971 18.9084 20.1767 19.6018 20.1767 20.4589C20.1767 21.3058 19.4971 21.9997 18.6679 21.9999C17.8286 21.9999 17.1484 21.3059 17.1484 20.4589C17.1484 19.6017 17.8286 18.9081 18.6679 18.9081ZM2.01071 2.64055C2.08064 2.22321 2.47023 1.94656 2.87985 2.00871L5.26364 2.37492C5.60315 2.43734 5.85281 2.72243 5.88278 3.06926L6.07223 5.35539C6.10239 5.68259 6.36221 5.92743 6.6816 5.92766H20.1767C20.7861 5.9277 21.1863 6.14186 21.5859 6.61125C21.9853 7.08062 22.0547 7.75405 21.9648 8.36516L21.0156 15.0595C20.8357 16.3462 19.7571 17.2947 18.4882 17.2948H7.5859C6.25723 17.2946 5.15882 16.2549 5.04879 14.9081L4.12887 3.78312L2.62008 3.51848C2.22048 3.44703 1.94088 3.04867 2.01071 2.64055ZM14.1211 9.70207C13.7015 9.70218 13.372 10.0392 13.372 10.4677C13.3721 10.886 13.7015 11.2332 14.1211 11.2333H16.8886C17.3083 11.2333 17.6386 10.8861 17.6386 10.4677C17.6386 10.0391 17.3083 9.70207 16.8886 9.70207H14.1211Z" fill="white" fill-opacity="0.8"/>
</svg>
