<svg width="21" height="21" viewBox="0 0 21 21" fill="none" xmlns="http://www.w3.org/2000/svg">
<path d="M0.902344 14.8887H14.0273V16.6113H0.902344V14.8887ZM14.0273 13.125H0.861328C0.861328 11.7852 1.3125 10.6641 2.21484 9.76172C3.11719 8.85938 4.21094 8.29883 5.49609 8.08008C6.78125 7.86133 8.06641 7.86133 9.35156 8.08008C10.6641 8.29883 11.7715 8.85938 12.6738 9.76172C13.5762 10.6641 14.0273 11.7852 14.0273 13.125ZM0.861328 19.2363V18.375H14.0273V19.2363C14.0273 19.4824 13.9316 19.6875 13.7402 19.8516C13.5762 20.0156 13.3711 20.0977 13.125 20.0977H1.76367C1.51758 20.0977 1.29883 20.0156 1.10742 19.8516C0.943359 19.6875 0.861328 19.4824 0.861328 19.2363ZM15.791 20.0977V13.084C15.791 11.3613 15.0801 9.81641 13.6582 8.44922C12.8105 7.60156 11.5664 6.94531 9.92578 6.48047L9.67969 4.42969H14.0273V0.861328H15.75V4.42969H20.1387L18.6621 18.8262C18.6074 19.1816 18.4434 19.4824 18.1699 19.7285C17.9238 19.9746 17.623 20.0977 17.2676 20.0977H15.791Z" fill="white" fill-opacity="0.8"/>
</svg>
