<svg width="161" height="85" viewBox="0 0 161 85" fill="none" xmlns="http://www.w3.org/2000/svg">
<g opacity="0.75">
<g filter="url(#filter0_d_463_1022)">
<g filter="url(#filter1_d_463_1022)">
<path d="M77.9458 42.9738L76.5253 21.6445L95.1861 21.0797L95.4784 25.4675L83.0997 25.8421L83.3676 29.8642L94.8169 29.5177L95.0929 33.6617L83.6436 34.0082L83.9379 38.4264L96.9856 38.0315L97.2758 42.3888L77.9458 42.9738Z" fill="black"/>
<path d="M95.8865 20.3085L96.2784 26.1933L83.899 26.568L84.0672 29.0932L95.5172 28.7467L95.8929 34.3878L84.4429 34.7343L84.6375 37.6553L97.6855 37.2604L98.0755 43.1149L77.246 43.7454L75.7257 20.9187L95.8865 20.3085Z" stroke="white" stroke-width="1.5"/>
</g>
<g filter="url(#filter2_d_463_1022)">
<path d="M54.9826 43.8667L53.5583 22.4958L59.5129 22.3157L70.2691 35.4313L69.3772 22.0479L74.9596 21.879L76.3838 43.2499L70.4293 43.43L59.7286 30.5876L60.6022 43.6967L54.9826 43.8667Z" fill="black"/>
<path d="M59.8431 21.5557L60.0881 21.855L69.367 33.1693L68.5774 21.3218L75.6598 21.1076L77.1839 43.9761L70.1034 44.1903L69.8578 43.8959L60.629 32.8193L61.4023 44.4222L54.2827 44.6376L52.7587 21.77L59.8431 21.5557Z" stroke="white" stroke-width="1.5"/>
</g>
<g filter="url(#filter3_d_463_1022)">
<path d="M47.0069 44.1036L45.3755 22.8582L51.5215 22.6203L53.1529 43.8658L47.0069 44.1036Z" fill="black"/>
<path d="M52.2138 21.8432L53.9601 44.5847L46.3149 44.8805L44.5686 22.139L52.2138 21.8432Z" stroke="white" stroke-width="1.5"/>
</g>
<g filter="url(#filter4_d_463_1022)">
<path d="M23.7123 35.3491C23.5322 32.6465 23.8585 30.458 24.6912 28.7836C25.5226 27.0888 26.8433 25.8374 28.6532 25.0293C30.4865 24.2001 32.8168 23.7428 35.644 23.6572C36.512 23.631 37.2945 23.6277 37.9916 23.6473C38.7122 23.6458 39.3852 23.6764 40.0106 23.7389C40.6608 23.8007 41.2875 23.8835 41.8909 23.9874C42.4928 24.071 43.1092 24.1847 43.7401 24.3285L42.7474 28.4511C41.9939 28.3314 41.2673 28.2414 40.5675 28.1811C39.8663 28.1005 39.1796 28.05 38.5073 28.0296C37.8584 27.9882 37.1992 27.9776 36.5296 27.9979C35.3144 28.0346 34.2809 28.1881 33.4292 28.4582C32.5774 28.7283 31.8963 29.1357 31.3859 29.6805C30.8755 30.2254 30.5137 30.9489 30.3005 31.8513C30.0859 32.7333 30.022 33.8245 30.1086 35.125C30.1871 36.3036 30.3775 37.2955 30.6796 38.1008C31.0066 38.9053 31.4591 39.5432 32.0372 40.0144C32.6153 40.4855 33.3334 40.8201 34.1915 41.0181C35.0744 41.2154 36.0986 41.2964 37.2642 41.2611C38.3554 41.2281 39.5039 41.1221 40.7096 40.9431C41.9401 40.7634 43.0687 40.546 44.0954 40.2909L45.4815 44.311C44.8958 44.4712 44.2853 44.6322 43.65 44.794C43.0133 44.9354 42.3256 45.058 41.5871 45.1618C40.8746 45.2852 40.0982 45.3799 39.2577 45.4461C38.4186 45.5325 37.503 45.5908 36.511 45.6208C34.5022 45.6816 32.7285 45.5418 31.19 45.2015C29.6515 44.8612 28.3461 44.2899 27.2738 43.4875C26.2263 42.6844 25.3968 41.61 24.7853 40.2643C24.1985 38.9179 23.8409 37.2795 23.7123 35.3491Z" fill="black"/>
<path d="M35.5939 22.9087C36.4691 22.8822 37.2637 22.8793 37.9761 22.8992C38.7137 22.8981 39.4084 22.9283 40.059 22.9934L40.0581 22.9944C40.725 23.0578 41.3698 23.1421 41.9924 23.2493L41.9915 23.2503C42.6089 23.3368 43.2392 23.4519 43.882 23.5984L44.6528 23.7743L44.4712 24.5279L43.4781 28.6508L43.3226 29.2962L42.6553 29.1904C41.9184 29.0733 41.2099 28.9861 40.5298 28.9275L40.5189 28.9259L40.5081 28.9252C39.8271 28.847 39.1617 28.7983 38.5116 28.7786L38.4861 28.7774C37.8617 28.7375 37.2262 28.7267 36.5795 28.7462C35.5569 28.7772 34.6928 28.8938 33.9777 29.0857L33.6802 29.1728C33.0188 29.3826 32.5008 29.6757 32.1055 30.0408L31.9441 30.2019C31.5365 30.637 31.2231 31.2399 31.0321 32.0479L31.0315 32.0528C30.8404 32.8385 30.7745 33.8484 30.8581 35.1021C30.9327 36.2228 31.1112 37.1303 31.3751 37.8414L31.486 38.0969C31.7567 38.6734 32.0984 39.1138 32.5 39.4412L32.6824 39.5802C33.1209 39.8929 33.6641 40.133 34.3298 40.2872L34.3308 40.2872C35.136 40.4671 36.0947 40.5464 37.2148 40.5125C38.2734 40.4804 39.3926 40.3771 40.5728 40.2019L40.5747 40.2018L41.4624 40.0627C42.3306 39.9165 43.1395 39.7497 43.8893 39.5634L44.5716 39.3944L44.8054 40.0709L46.1913 44.0906L46.4461 44.831L45.7045 45.0341C45.1144 45.1955 44.4996 45.3569 43.8606 45.5195L43.8491 45.5228L43.8385 45.5251C43.1828 45.6707 42.4785 45.7966 41.7263 45.9025C40.9971 46.0282 40.2081 46.1227 39.3607 46.1899L39.3617 46.1908C38.502 46.2794 37.5682 46.3388 36.5613 46.3693C34.5068 46.4315 32.6673 46.2896 31.0524 45.9324C29.4259 45.5726 28.0131 44.961 26.8363 44.0805L26.8291 44.0748C25.7391 43.2391 24.8744 42.1475 24.2285 40.8214L24.103 40.5527L24.0973 40.5412C23.4659 39.0919 23.0952 37.3622 22.9626 35.3722C22.7773 32.5918 23.1062 30.2602 24.0153 28.432C24.9234 26.5827 26.3698 25.2181 28.3219 24.3456L28.6937 24.1849C30.5768 23.4072 32.8852 22.9907 35.5939 22.9087Z" stroke="white" stroke-width="1.5"/>
</g>
</g>
<g filter="url(#filter5_d_463_1022)">
<path d="M90.0981 13.838L104.662 40.1306L88.3719 62.4184L89.235 76L108.654 46.2249L117.716 62.6796L127.533 59.2842L114.156 37.4317L134.653 4L124.836 6.00242L111.135 32.208L100.239 11.4002L90.0981 13.838Z" fill="url(#paint0_linear_463_1022)"/>
<path d="M90.0981 13.838L104.662 40.1306L88.3719 62.4184L89.235 76L108.654 46.2249L117.716 62.6796L127.533 59.2842L114.156 37.4317L134.653 4L124.836 6.00242L111.135 32.208L100.239 11.4002L90.0981 13.838Z" stroke="#FFFBFB" stroke-width="1.5"/>
</g>
<g filter="url(#filter6_d_463_1022)">
<g filter="url(#filter7_d_463_1022)">
<path d="M26.803 49.6548L26.1372 53.6979C25.6272 53.5878 25.0449 53.4928 24.3902 53.4128C23.7354 53.3328 23.0588 53.2748 22.3602 53.2387C21.6615 53.2026 20.9656 53.1869 20.2722 53.1915C19.5789 53.196 18.9127 53.2194 18.2738 53.2614C16.824 53.3567 15.7392 53.5922 15.0196 53.9676C14.2999 54.3431 13.9849 54.8766 14.0744 55.568C14.1219 55.9341 14.2869 56.2514 14.5695 56.5199C14.8495 56.7681 15.2743 56.9863 15.8439 57.1744C16.4135 57.3625 17.1429 57.5402 18.0319 57.7073C18.921 57.8744 19.9847 58.0506 21.2231 58.2357C22.5598 58.4145 23.7323 58.6655 24.7408 58.9888C25.7712 59.2902 26.6387 59.6741 27.3435 60.1405C28.0703 60.5849 28.6368 61.1322 29.0432 61.7822C29.4716 62.4104 29.7424 63.1617 29.8557 64.0361C30.0348 65.419 29.7439 66.6174 28.9831 67.6314C28.2223 68.6453 27.0147 69.4631 25.3604 70.0846C23.7034 70.6859 21.6216 71.0689 19.1151 71.2338C18.2796 71.2887 17.4155 71.3148 16.523 71.312C15.6304 71.3091 14.7229 71.2868 13.8005 71.2449C12.9 71.1811 12.0215 71.0953 11.1649 70.9876C10.3057 70.8595 9.49295 70.7079 8.72675 70.5326L9.39653 66.52C10.1601 66.6749 10.9456 66.8078 11.753 66.9188C12.5605 67.0298 13.3776 67.1196 14.2043 67.1883C15.0285 67.2366 15.8377 67.2654 16.6319 67.2747C17.4508 67.2824 18.2165 67.2628 18.9292 67.2159C20.035 67.1432 20.9227 67.013 21.5924 66.8254C22.2839 66.6158 22.7697 66.348 23.0496 66.022C23.3542 65.6943 23.4774 65.3068 23.4195 64.8594C23.3694 64.473 23.1553 64.1589 22.777 63.9172C22.4233 63.6738 21.9002 63.4621 21.2077 63.2821C20.5126 63.0817 19.6454 62.8926 18.6063 62.7148C17.5917 62.5354 16.4121 62.3259 15.0676 62.0862C13.9222 61.8539 12.9067 61.572 12.0212 61.2406C11.1602 60.9075 10.4155 60.5156 9.78703 60.0647C9.15597 59.5934 8.65084 59.0422 8.27165 58.4108C7.91703 57.7778 7.68703 57.0546 7.58165 56.2412C7.4631 55.326 7.56264 54.4684 7.88029 53.6681C8.22251 52.8663 8.78679 52.1523 9.57312 51.5263C10.384 50.8988 11.4701 50.3864 12.8313 49.9892C14.1898 49.5717 15.8275 49.2999 17.7443 49.1738C18.8747 49.0995 19.9994 49.0768 21.1184 49.1057C22.262 49.1331 23.3235 49.1965 24.303 49.2962C25.2824 49.3958 26.1158 49.5154 26.803 49.6548Z" fill="black"/>
<path d="M17.6478 48.4292C18.8 48.3534 19.9471 48.3308 21.0888 48.3603L21.0897 48.3593C22.2499 48.387 23.3317 48.4517 24.3339 48.5536L25.0548 48.6343C25.7505 48.7184 26.3699 48.8144 26.9102 48.924L27.6701 49.0783L27.5479 49.8188L26.8817 53.8619L26.7623 54.5865L26.0204 54.4271C25.5391 54.3232 24.9811 54.2309 24.344 54.153C23.7083 54.0754 23.0494 54.019 22.3676 53.9838C22.0256 53.9661 21.6843 53.9533 21.3437 53.9455L20.3237 53.9373C19.6442 53.9418 18.9932 53.9652 18.3703 54.0062C17.1336 54.0875 16.24 54.2706 15.6415 54.5211L15.4034 54.6325C15.1243 54.7781 14.9766 54.9266 14.9009 55.0548C14.8304 55.1742 14.7965 55.318 14.8224 55.5185C14.8457 55.6978 14.9192 55.8457 15.065 55.9876C15.2286 56.1282 15.5321 56.2995 16.042 56.468L16.4666 56.5975C16.9228 56.7259 17.4753 56.8515 18.1279 56.9742L18.8182 57.0999C19.5421 57.2272 20.3659 57.3595 21.29 57.4976L21.289 57.4977C22.655 57.6808 23.8717 57.9397 24.9326 58.2799L24.9317 58.2799C25.9994 58.5938 26.9306 59.0008 27.71 59.5121L27.7109 59.5121C28.5345 60.0157 29.198 60.6501 29.6785 61.4185L29.6765 61.4186C30.1769 62.162 30.4792 63.0257 30.6037 63.987C30.8054 65.5436 30.4764 66.9297 29.5987 68.0994C28.7352 69.2502 27.4001 70.1326 25.6662 70.7841L25.6588 70.7875C23.9177 71.4193 21.7621 71.8104 19.2118 71.9782C18.5714 72.0203 17.9152 72.0459 17.2438 72.0548L16.5672 72.0582C15.6637 72.0554 14.7456 72.0324 13.8129 71.99L13.7932 71.9894C12.8795 71.9246 11.9871 71.837 11.116 71.7274L11.1071 71.727L11.0981 71.7256C10.4405 71.6276 9.80791 71.5157 9.20039 71.3899L8.60077 71.2592L7.86151 71.0898L7.98209 70.367L8.65215 66.3539L8.77107 65.6411L9.50367 65.7895C10.2501 65.9409 11.0195 66.0706 11.8113 66.1794L12.408 66.2575C13.0066 66.3315 13.6108 66.3937 14.2206 66.4443L14.2196 66.4444C15.0261 66.4915 15.8174 66.5197 16.5937 66.5288L16.5927 66.5289C17.3949 66.5364 18.1413 66.517 18.8325 66.4715C19.904 66.401 20.7304 66.2761 21.3306 66.1097C21.9684 65.9164 22.3062 65.7 22.4618 65.519L22.4702 65.5086L22.4798 65.4992L22.5378 65.4309C22.6596 65.2725 22.6975 65.1089 22.6716 64.9087C22.6553 64.7828 22.6002 64.667 22.3964 64.5366L22.3846 64.5286L22.3728 64.5216C22.133 64.3565 21.714 64.1731 21.0587 64.0027L21.0486 64.0005L21.0383 63.9972C20.5456 63.8552 19.9522 63.7167 19.2552 63.5826L18.5226 63.4498L18.5186 63.4491C17.5037 63.2697 16.3239 63.0602 14.9794 62.8205L14.9694 62.8192L14.9602 62.8168C13.7835 62.5781 12.7264 62.286 11.7932 61.9368L11.7849 61.9334C10.8724 61.5805 10.0643 61.158 9.36974 60.6598L9.36314 60.6543L9.35666 60.6499C8.64567 60.1189 8.06633 59.4895 7.62931 58.7618L7.6168 58.7412C7.20601 58.0079 6.94963 57.1864 6.83355 56.2904C6.71647 55.3866 6.78728 54.5221 7.0509 53.7054L7.17889 53.3508L7.18275 53.3427C7.57618 52.4209 8.2173 51.6195 9.07862 50.9338L9.08566 50.9275L9.436 50.6737C10.2806 50.0986 11.3312 49.6372 12.5673 49.2757L12.5672 49.2748C13.9943 48.8362 15.6915 48.5579 17.6478 48.4292Z" stroke="white" stroke-width="1.5"/>
</g>
<path d="M50.2641 46.6765L51.0358 52.7121L43.4413 53.2145L45.5908 70.0268L37.8638 70.5379L35.7143 53.7257L28.1198 54.2281L27.3481 48.1924L50.2641 46.6765Z" fill="black" stroke="white" stroke-width="1.5"/>
<path d="M128.255 44.2232L128.496 44.5736L134.658 53.5397L139.821 44.36L140.02 44.0042L147.377 43.8674L148.729 66.8418L141.52 66.976L140.813 54.9677L137.067 61.6385L136.867 61.9942L133.068 62.0649L132.827 61.7145L128.424 55.3113L129.124 67.2066L121.916 67.3408L120.563 44.3663L128.255 44.2232Z" fill="black" stroke="white" stroke-width="1.5"/>
<path d="M112.326 44.4989L112.546 44.9729L122.418 66.2928L122.883 67.2985L114.368 67.5311L114.158 67.0305L112.713 63.5838L105.863 63.7708L104.916 67.283L104.779 67.793L96.6028 68.0163L96.9163 66.9923L103.592 45.2203L103.742 44.7334L112.326 44.4989ZM107.073 57.9709L110.679 57.8725L108.45 51.9685L107.073 57.9709Z" fill="black" stroke="white" stroke-width="1.5"/>
<path d="M95.0531 45.0795L95.4501 50.9803L83.1712 51.281L83.3423 53.8233L94.6995 53.5452L95.08 59.2015L83.7227 59.4796L83.9205 62.4193L96.8629 62.1023L97.2578 67.9728L76.582 68.4792L75.0409 45.5696L95.0531 45.0795Z" fill="black" stroke="white" stroke-width="1.5"/>
<path d="M61.3539 45.4723C63.4287 45.4111 65.2252 45.4927 66.7349 45.7251L66.734 45.7261C68.2589 45.9363 69.5634 46.3068 70.6194 46.8659L70.6184 46.866C71.7082 47.429 72.5561 48.2021 73.1238 49.1919L73.1248 49.1918C73.6797 50.142 73.9888 51.2662 74.0838 52.536C74.1807 53.8314 74.0291 55.0005 73.5972 56.0185L73.5947 56.0244C73.1641 57.0121 72.4952 57.8303 71.6043 58.4763L71.6053 58.4772C71.0596 58.8838 70.4472 59.23 69.7731 59.5225C70.1038 59.8022 70.4206 60.0563 70.7241 60.2846C71.3293 60.7208 71.876 61.0852 72.3649 61.3805C72.861 61.665 73.301 61.8659 73.6868 61.9951C74.0969 62.1039 74.4634 62.1497 74.7914 62.14L75.0376 62.1327C75.1532 62.112 75.2706 62.0956 75.3812 62.0923L76.1257 62.0704L76.187 62.8119L76.5942 67.7714L76.6491 68.4409L75.9887 68.5394C75.8099 68.5661 75.6077 68.5932 75.3828 68.6207C75.1322 68.6514 74.8365 68.671 74.5021 68.6809C73.6771 68.7052 72.8466 68.6298 72.0119 68.4569L72.0119 68.4559C71.1777 68.303 70.342 68.0436 69.5058 67.6792L69.4967 67.6756C68.685 67.3098 67.8488 66.8404 66.9879 66.2727L66.9767 66.2662C66.1121 65.6759 65.2203 64.9744 64.301 64.1648L64.2926 64.1573L64.7857 63.6139L64.2926 64.1563C63.4789 63.4188 62.6312 62.5731 61.7472 61.6228C61.6535 61.6287 61.5543 61.6353 61.4507 61.6384L59.7506 61.6886C59.6289 61.6922 59.5086 61.6927 59.3907 61.6943L59.9225 68.8041L52.1366 69.034L50.4246 46.1433L51.1299 46.0825L53.2185 45.9125C53.8845 45.8621 54.5202 45.8176 55.1258 45.7791L55.1268 45.7791L56.8922 45.6733C57.4533 45.6414 57.9872 45.6132 58.4936 45.588L58.4946 45.588L59.9877 45.5205C60.4642 45.5013 60.9198 45.4851 61.3539 45.4723ZM60.88 51.0363C60.6278 51.0437 60.3624 51.0605 60.0839 51.0881L60.0586 51.0908L60.0322 51.0915C59.7795 51.099 59.4875 51.1171 59.1551 51.1467C58.9886 51.1615 58.8046 51.1735 58.6051 51.1893L58.9917 56.3591C59.0948 56.3626 59.1942 56.3641 59.29 56.3678C59.5745 56.3604 59.8595 56.3624 60.1452 56.3728L62.0905 56.3154C62.9199 56.2909 63.6182 56.2111 64.192 56.0826C64.7595 55.9555 65.1603 55.7781 65.4311 55.5777C65.7282 55.354 65.9227 55.0933 66.0364 54.794L66.0397 54.7852L66.0438 54.7753C66.1778 54.4507 66.2436 54.0169 66.2009 53.4449C66.1475 52.7311 65.9772 52.2562 65.7593 51.9526L65.7506 51.9412C65.5532 51.6555 65.2055 51.3983 64.5967 51.2289L64.5887 51.2272C63.9941 51.0555 63.1158 50.9702 61.9156 51.0057L60.88 51.0363Z" fill="black" stroke="white" stroke-width="1.5"/>
</g>
</g>
<defs>
<filter id="filter0_d_463_1022" x="20.6615" y="17.5374" width="84.7135" height="35.595" filterUnits="userSpaceOnUse" color-interpolation-filters="sRGB">
<feFlood flood-opacity="0" result="BackgroundImageFix"/>
<feColorMatrix in="SourceAlpha" type="matrix" values="0 0 0 0 0 0 0 0 0 0 0 0 0 0 0 0 0 0 127 0" result="hardAlpha"/>
<feOffset dx="2.5" dy="2"/>
<feGaussianBlur stdDeviation="2"/>
<feComposite in2="hardAlpha" operator="out"/>
<feColorMatrix type="matrix" values="0 0 0 0 1 0 0 0 0 0.983654 0 0 0 0 0.983654 0 0 0 0.5 0"/>
<feBlend mode="normal" in2="BackgroundImageFix" result="effect1_dropShadow_463_1022"/>
<feBlend mode="normal" in="SourceGraphic" in2="effect1_dropShadow_463_1022" result="shape"/>
</filter>
<filter id="filter1_d_463_1022" x="70.9261" y="19.5374" width="31.9489" height="32.979" filterUnits="userSpaceOnUse" color-interpolation-filters="sRGB">
<feFlood flood-opacity="0" result="BackgroundImageFix"/>
<feColorMatrix in="SourceAlpha" type="matrix" values="0 0 0 0 0 0 0 0 0 0 0 0 0 0 0 0 0 0 127 0" result="hardAlpha"/>
<feOffset dy="4"/>
<feGaussianBlur stdDeviation="2"/>
<feComposite in2="hardAlpha" operator="out"/>
<feColorMatrix type="matrix" values="0 0 0 0 0 0 0 0 0 0 0 0 0 0 0 0 0 0 0.25 0"/>
<feBlend mode="normal" in2="BackgroundImageFix" result="effect1_dropShadow_463_1022"/>
<feBlend mode="normal" in="SourceGraphic" in2="effect1_dropShadow_463_1022" result="shape"/>
</filter>
<filter id="filter2_d_463_1022" x="47.9591" y="20.3367" width="34.024" height="33.0723" filterUnits="userSpaceOnUse" color-interpolation-filters="sRGB">
<feFlood flood-opacity="0" result="BackgroundImageFix"/>
<feColorMatrix in="SourceAlpha" type="matrix" values="0 0 0 0 0 0 0 0 0 0 0 0 0 0 0 0 0 0 127 0" result="hardAlpha"/>
<feOffset dy="4"/>
<feGaussianBlur stdDeviation="2"/>
<feComposite in2="hardAlpha" operator="out"/>
<feColorMatrix type="matrix" values="0 0 0 0 0 0 0 0 0 0 0 0 0 0 0 0 0 0 0.25 0"/>
<feBlend mode="normal" in2="BackgroundImageFix" result="effect1_dropShadow_463_1022"/>
<feBlend mode="normal" in="SourceGraphic" in2="effect1_dropShadow_463_1022" result="shape"/>
</filter>
<filter id="filter3_d_463_1022" x="39.7618" y="21.0662" width="19.0047" height="32.5918" filterUnits="userSpaceOnUse" color-interpolation-filters="sRGB">
<feFlood flood-opacity="0" result="BackgroundImageFix"/>
<feColorMatrix in="SourceAlpha" type="matrix" values="0 0 0 0 0 0 0 0 0 0 0 0 0 0 0 0 0 0 127 0" result="hardAlpha"/>
<feOffset dy="4"/>
<feGaussianBlur stdDeviation="2"/>
<feComposite in2="hardAlpha" operator="out"/>
<feColorMatrix type="matrix" values="0 0 0 0 0 0 0 0 0 0 0 0 0 0 0 0 0 0 0.25 0"/>
<feBlend mode="normal" in2="BackgroundImageFix" result="effect1_dropShadow_463_1022"/>
<feBlend mode="normal" in="SourceGraphic" in2="effect1_dropShadow_463_1022" result="shape"/>
</filter>
<filter id="filter4_d_463_1022" x="18.1615" y="22.137" width="33.2497" height="32.9954" filterUnits="userSpaceOnUse" color-interpolation-filters="sRGB">
<feFlood flood-opacity="0" result="BackgroundImageFix"/>
<feColorMatrix in="SourceAlpha" type="matrix" values="0 0 0 0 0 0 0 0 0 0 0 0 0 0 0 0 0 0 127 0" result="hardAlpha"/>
<feOffset dy="4"/>
<feGaussianBlur stdDeviation="2"/>
<feComposite in2="hardAlpha" operator="out"/>
<feColorMatrix type="matrix" values="0 0 0 0 0 0 0 0 0 0 0 0 0 0 0 0 0 0 0.25 0"/>
<feBlend mode="normal" in2="BackgroundImageFix" result="effect1_dropShadow_463_1022"/>
<feBlend mode="normal" in="SourceGraphic" in2="effect1_dropShadow_463_1022" result="shape"/>
</filter>
<filter id="filter5_d_463_1022" x="86.1063" y="0.920166" width="56.5887" height="83.3809" filterUnits="userSpaceOnUse" color-interpolation-filters="sRGB">
<feFlood flood-opacity="0" result="BackgroundImageFix"/>
<feColorMatrix in="SourceAlpha" type="matrix" values="0 0 0 0 0 0 0 0 0 0 0 0 0 0 0 0 0 0 127 0" result="hardAlpha"/>
<feOffset dx="2.5" dy="2"/>
<feGaussianBlur stdDeviation="2"/>
<feComposite in2="hardAlpha" operator="out"/>
<feColorMatrix type="matrix" values="0 0 0 0 1 0 0 0 0 1 0 0 0 0 1 0 0 0 0.5 0"/>
<feBlend mode="normal" in2="BackgroundImageFix" result="effect1_dropShadow_463_1022"/>
<feBlend mode="normal" in="SourceGraphic" in2="effect1_dropShadow_463_1022" result="shape"/>
</filter>
<filter id="filter6_d_463_1022" x="0.524414" y="37.1055" width="159.499" height="45.6992" filterUnits="userSpaceOnUse" color-interpolation-filters="sRGB">
<feFlood flood-opacity="0" result="BackgroundImageFix"/>
<feColorMatrix in="SourceAlpha" type="matrix" values="0 0 0 0 0 0 0 0 0 0 0 0 0 0 0 0 0 0 127 0" result="hardAlpha"/>
<feMorphology radius="4" operator="dilate" in="SourceAlpha" result="effect1_dropShadow_463_1022"/>
<feOffset dx="2.5" dy="2"/>
<feGaussianBlur stdDeviation="2"/>
<feComposite in2="hardAlpha" operator="out"/>
<feColorMatrix type="matrix" values="0 0 0 0 1 0 0 0 0 1 0 0 0 0 1 0 0 0 0.5 0"/>
<feBlend mode="normal" in2="BackgroundImageFix" result="effect1_dropShadow_463_1022"/>
<feBlend mode="normal" in="SourceGraphic" in2="effect1_dropShadow_463_1022" result="shape"/>
</filter>
<filter id="filter7_d_463_1022" x="2.02441" y="47.6011" width="33.3913" height="33.2036" filterUnits="userSpaceOnUse" color-interpolation-filters="sRGB">
<feFlood flood-opacity="0" result="BackgroundImageFix"/>
<feColorMatrix in="SourceAlpha" type="matrix" values="0 0 0 0 0 0 0 0 0 0 0 0 0 0 0 0 0 0 127 0" result="hardAlpha"/>
<feOffset dy="4"/>
<feGaussianBlur stdDeviation="2"/>
<feComposite in2="hardAlpha" operator="out"/>
<feColorMatrix type="matrix" values="0 0 0 0 0 0 0 0 0 0 0 0 0 0 0 0 0 0 0.25 0"/>
<feBlend mode="normal" in2="BackgroundImageFix" result="effect1_dropShadow_463_1022"/>
<feBlend mode="normal" in="SourceGraphic" in2="effect1_dropShadow_463_1022" result="shape"/>
</filter>
<linearGradient id="paint0_linear_463_1022" x1="111.513" y1="4" x2="111.513" y2="76" gradientUnits="userSpaceOnUse">
<stop stop-color="#CF0B0E"/>
<stop offset="0.831731" stop-color="#380558"/>
</linearGradient>
</defs>
</svg>
